<svg xmlns="http://www.w3.org/2000/svg" viewBox="0 0 383.24 384"><g id="Capa_2" data-name="Capa 2"><g id="Capa_7" data-name="Capa 7"><path d="M202.84,384H179.63c-7.62-1.07-15.3-1.81-22.86-3.25A192,192,0,0,1,5.28,147.29C22.89,72.94,83.9,15.61,159,2.93c6.86-1.16,13.77-2,20.65-2.93h24c1.08.22,2.16.46,3.25.66,12.47,2.27,25.35,3.22,37.35,7,75.11,23.75,120.48,74.67,136.14,152,1.41,6.93,2,14,2.91,21V204c-1,6.9-1.75,13.83-2.91,20.7C367,304.17,303.75,367.61,224.6,381,217.39,382.23,210.1,383,202.84,384ZM191.66,136.17c7.86,0,15.72-.1,23.58.06a6.32,6.32,0,0,0,5.9-2.91q17.45-23.89,35.17-47.59a6,6,0,0,0,1.15-6.1q-7.41-23-14.44-46.06a5.68,5.68,0,0,0-4.36-4.36,166.24,166.24,0,0,0-94.77.37A5.84,5.84,0,0,0,140.65,33q-7.6,23.51-14.8,47.13a6.5,6.5,0,0,0,.82,5c11.82,16.26,23.85,32.37,35.71,48.59a5.71,5.71,0,0,0,5.33,2.56C175.69,136.1,183.67,136.17,191.66,136.17Zm-112.35-40v.56c-8.35,0-16.7-.09-25.05.09a5.26,5.26,0,0,0-3.8,2.07c-3.8,6.29-7.62,12.6-10.88,19.18A167.21,167.21,0,0,0,22.45,187.3c-.07,2.15.34,3.64,2.28,5,13.38,9.38,26.61,18.95,40,28.32,1.23.87,3.34,1.55,4.64,1.12q29.06-9.65,58-19.72a5.26,5.26,0,0,0,2.75-3q7.81-23.61,15.28-47.33a5.58,5.58,0,0,0-.82-4.31c-11.92-16.32-24-32.54-35.92-48.85a5.33,5.33,0,0,0-5-2.36C95.52,96.26,87.42,96.19,79.31,96.19Zm224.92.56v-.56c-8.22,0-16.45-.11-24.67.1a6.62,6.62,0,0,0-4.61,2.1q-18.31,24.39-36.26,49.05a5.54,5.54,0,0,0-.76,4.3q7.44,23.72,15.29,47.32a5.69,5.69,0,0,0,3.14,3.12c18.81,6.5,37.7,12.81,56.51,19.31a5.91,5.91,0,0,0,6.13-1c10.69-7.76,21.16-15.91,32.36-22.87,7.63-4.74,10-9.93,9-19-3-28.73-11.69-55.27-27.45-79.45a6.19,6.19,0,0,0-4.42-2.29C320.44,96.63,312.33,96.75,304.23,96.75ZM180.4,287.27c0-9.87.1-19.74-.11-29.6a6.51,6.51,0,0,0-2.3-4.49q-19.5-14.52-39.3-28.64a6.33,6.33,0,0,0-5-.79Q105.38,233.17,77.19,243a6.49,6.49,0,0,0-3.57,3.59q-7.52,23.31-14.55,46.78a6.23,6.23,0,0,0,1,4.91A165.6,165.6,0,0,0,133.54,351a6.24,6.24,0,0,0,5-.73c13.2-9.4,26.23-19.05,39.42-28.48a5.55,5.55,0,0,0,2.52-5.27C180.34,306.75,180.4,297,180.4,287.27Zm66.75-64.42c-.67.41-1.53.88-2.32,1.45-13.21,9.59-26.45,19.15-39.57,28.89a6.49,6.49,0,0,0-2.31,4.49c-.15,19.73-.08,39.46-.14,59.2a5,5,0,0,0,2.25,4.64c13.27,9.53,26.41,19.24,39.7,28.72a6.24,6.24,0,0,0,5,.7,166.38,166.38,0,0,0,73.13-52c1.68-2.05,2.15-3.75,1.31-6.36q-7.34-22.79-14.27-45.69a5.6,5.6,0,0,0-4.14-4.12c-18.29-6.13-36.54-12.38-54.8-18.59Zm-55.5-64.18c-7.23,0-14.47.06-21.7,0-2.13,0-3.33.43-4.06,2.75-4.42,14-9.08,28-13.48,42a4.51,4.51,0,0,0,1.2,3.93c11.9,8.87,23.95,17.54,35.91,26.34a3,3,0,0,0,4.25,0q17.79-13.08,35.71-26c1.88-1.35,2.1-2.56,1.4-4.68q-6.82-20.6-13.34-41.29c-.8-2.55-2.09-3.19-4.56-3.14C205.87,158.77,198.76,158.67,191.65,158.67ZM114,42.47A145.49,145.49,0,0,0,70.52,73.72c11.15,0,21.67,0,32.2-.06a2.53,2.53,0,0,0,1.89-1.36C107.8,62.38,110.89,52.42,114,42.47ZM312.75,73.74a167.85,167.85,0,0,0-43.08-31.95,5.43,5.43,0,0,0-.15,1.45c3,9.5,5.89,19,9,28.47a3.46,3.46,0,0,0,2.56,1.94C291.38,73.79,301.69,73.74,312.75,73.74ZM218.68,359.17c-9.07-6.59-17.48-12.76-26-18.76-.61-.43-2.29.1-3.14.68-4.3,3-8.5,6.11-12.73,9.19l-12.24,9A162.71,162.71,0,0,0,218.68,359.17ZM24.88,220a170.44,170.44,0,0,0,17.4,51.41c3.3-10.55,6.38-20.27,9.29-30a3.4,3.4,0,0,0-1-3C42.35,232.33,34,226.47,24.88,220Zm315.93,50.8c6.56-9.08,17.95-42.57,16.72-50.18-8.27,5.89-16.5,11.69-24.61,17.65a3.78,3.78,0,0,0-1.18,3.27C334.61,251.17,337.68,260.77,340.81,270.76Z"/></g></g></svg>