<svg xmlns="http://www.w3.org/2000/svg" viewBox="0 0 383.28 331.75"><g id="Capa_2" data-name="Capa 2"><g id="Capa_1-2" data-name="Capa 1"><path d="M383.28,209.4c-2.36,4.85-5.53,8.84-11.54,8.27a16.15,16.15,0,0,1-7.17-2.65c-9.1-6.13-18.06-12.48-27-18.83-16.21-11.5-33-11.75-49.87-1.07-23.69,15-47.69,15.21-71.41.2-16.65-10.55-32.71-10.46-49.35.08-23.29,14.73-47,14.77-70.45.22-18.16-11.29-33.86-11.19-51.43,1.09-8.59,6-17.15,12-25.75,18-6.53,4.55-13.25,3.88-17.16-1.64s-2.35-12.19,4.11-16.74c9.28-6.53,18.6-13,27.87-19.56a64.11,64.11,0,0,1,40.08-12,6.73,6.73,0,0,0,4.24-1.59C84.79,157.57,91,151.8,97.22,146a18.09,18.09,0,0,0,3-3.79Q138.61,79.7,176.9,17.13c9-14.67,24.93-20.75,41.36-15Q284,25.3,349.55,48.74c3.41,1.21,6.83,2.36,10.2,3.67,12.79,5,20.38,14.27,22.89,27.78a10.12,10.12,0,0,0,.64,1.71v7.5a10.4,10.4,0,0,0-.65,1.7c-4,21.83-24.12,34.5-45.2,28.18-7.75-2.32-15.32-5.19-22.95-7.89Q273.83,97,233.18,82.54c-6.77-2.4-11.78-.86-15.13,4.87-7.74,13.25-15.36,26.56-23,39.88a4.48,4.48,0,0,0-.63,3c1,3.24,2.31,6.39,3.63,9.94,16.38-19.77,36.74-27.79,61.24-22s39.31,22.22,45,46.71c1,0,1.77.05,2.5,0,16-1.24,30.3,3.07,43.27,12.33,8.23,5.86,16.65,11.45,24.73,17.5,3.18,2.38,5.69,5.68,8.5,8.55ZM102.1,172.49c1.44.91,2.72,1.66,3.94,2.5,17.08,11.73,34.09,11.61,51.17-.07a60.54,60.54,0,0,1,22-9c1.26-.26,2.51-.55,3.94-.86-3.92-10.55-7.56-20.64-11.42-30.64a14.73,14.73,0,0,1,1.05-13.87c8.85-14.91,17.37-30,26.07-45a33,33,0,0,1,3.7-5.16c9.62-11.08,23.78-14.29,38.88-8.94q50.87,18.06,101.78,36c7.29,2.57,14.35-.93,16.63-7.78s-1.12-13.55-8.19-16.21c-5.83-2.2-11.71-4.24-17.58-6.32Q272.83,45.43,211.57,23.7c-7.1-2.52-11.73-.74-15.57,5.53-22.87,37.36-45.87,74.64-68.58,112.1-6.83,11.28-14,22.14-24.63,30.23A5.3,5.3,0,0,0,102.1,172.49Zm108.31-5.93c7.54,4.19,14.65,8.23,21.85,12.12a41,41,0,0,0,23.8,4.73c8.92-.82,16.25-5.09,23.55-9.75,2.17-1.39,2.78-2.55,2.24-5A36.93,36.93,0,0,0,239,139.73C225.19,142.19,212.64,154.1,210.41,166.56Z"/><path d="M383.28,269.4c-.32.49-.68,1-.95,1.48-3.46,6.8-10.67,8.84-17,4.52-9.07-6.19-18-12.55-27-18.89-17.31-12.25-33.44-12.38-51.46-1.15-23.26,14.48-46.95,14.63-70.14,0-16.92-10.7-33.09-10.76-50-.06-23.3,14.73-47.07,14.58-70.46,0-17.74-11.09-33.77-10.95-50.83,1q-13.19,9.22-26.36,18.47c-6.33,4.42-12.92,3.7-16.86-1.79s-2.43-12.22,4-16.75Q20,246.46,33.77,236.82c23-16,50.15-16.51,73.63-1.12,12.72,8.34,26,10.06,40.2,4.41a46.67,46.67,0,0,0,7.53-4.11c24.52-15.54,48.91-15.41,73.39.2,15.38,9.81,30.94,9.71,46.47.12a85.44,85.44,0,0,1,11.08-6.19c20.88-8.91,41.17-7.49,60.32,4.71,10.83,6.89,21.21,14.51,31.6,22.06,2.19,1.59,3.55,4.31,5.29,6.5Z"/><path d="M383.28,323.4c-2.11,4.29-4.82,8.23-10.07,8.15a16.92,16.92,0,0,1-8.65-2.58c-9.17-6-18.05-12.5-27-18.81-16.37-11.52-32.87-11.75-49.87-1-23.86,15-47.92,15.12-71.74,0-16.39-10.41-32.36-10.25-48.71.1-23.56,14.92-47.43,15-71.08.18-17.58-11-33.56-10.88-50.51.91C36.73,316.49,27.87,322.77,19,329c-6.25,4.35-13,3.54-16.85-1.91S-.21,314.9,6,310.55c10-7,19.78-14.42,30.1-20.94,23.3-14.72,47.07-14.86,70.4-.19,11.91,7.49,24.17,10.55,37.66,6.13a60.27,60.27,0,0,0,12.29-6.19c23.57-14.3,47.2-14.56,70.5.18,16.63,10.52,32.69,10.73,49.37.19,24.13-15.25,48.46-14.87,72.33.73,9.81,6.41,19.35,13.25,28.76,20.24,2.45,1.82,3.95,4.93,5.89,7.45Z"/></g></g></svg>