<svg xmlns="http://www.w3.org/2000/svg" viewBox="0 0 383.33 382.58"><g id="Capa_2" data-name="Capa 2"><g id="Capa_3" data-name="Capa 3"><path d="M0,239.26v-6c2.5-5.17,6.3-8.5,12.58-8.38-.42-13-.8-25.77-1.26-38.49a37.83,37.83,0,0,0-.77-6.27C7.67,166.33,4,152.66,2,138.75-1,118.57.35,98.45,8.45,79.5c5-11.78,11.46-23,17.39-34.37,5.54-10.66,9.26-21.75,9.4-33.93C35.32,4.61,40.17,0,46.84,0Q115.15,0,183.44,0c7.3,0,11.73,4.63,11.95,12,.2,6.87.29,13.75.77,20.6.92,13.13,5.23,25.29,10.93,37.14,5.74-1.43,10.45-.11,13.51,4.88,3.28,5.38,1.63,10.28-2.74,15.11l17.86,21.77c5.41-3.79,10.53-4.42,15.29-.44,4.91,4.12,5,9.41,2.09,15.46L277.4,141c.78-.91,1-1.18,1.25-1.47,3.67-4.7,8.22-6.32,13.07-4.64s7.67,5.68,7.54,11.63c-.05,2.37,1.14,2.59,2.8,3,16.29,4.16,32.59,8.28,48.84,12.59,17.61,4.68,30,19.34,32.17,37.8,2,16.58-7.13,33.69-22.29,42.31a10.27,10.27,0,0,0-4.1,4.41q-11.76,26.31-23.11,52.79a8.67,8.67,0,0,0-.09,5.88c3.85,10.18,5.14,20.58,3,31.28-5.12,26-27.22,45.15-52.89,45.92-27.09.82-50.12-16.49-56.92-42.76a19.33,19.33,0,0,0-.86-2.2h-9c-9.34,0-13.42-4.13-13.58-13.41-.08-4.85.15-9.86-.92-14.52-2.52-11-13-18-24.15-17-11.43,1.07-20.1,10.36-20.72,22.36-.2,3.86,0,7.75-.12,11.62a11,11,0,0,1-11.06,10.91,62.29,62.29,0,0,1-7.85,0c-2.83-.26-4,.59-4.81,3.54-7.62,28.3-36.08,46.31-64.54,40.48-21.84-4.47-36.83-17.64-43.31-39S24.71,302,40.35,286c1.71-1.75,2.76-3,1.46-5.66-3.41-7.08-6.4-14.35-9.58-21.54-1.61-3.65-2.32-8.74-5.13-10.54-3-1.89-8-1-12-.7C8.11,248.09,3,245.74,0,239.26Zm31.93-158c.8.31,1.25.49,1.7.64,41.89,13.51,68.23,41.57,78.6,84.49.52,2.16,1.58,2.62,3.38,2.36,9.26-1.38,17.06,1.78,24.17,7.47a62.59,62.59,0,0,0,7.54,4.87c22.5,13.35,45,26.78,67.6,39.9,3.55,2.06,7.9,3.82,11.89,3.85,37.54.28,75.08.2,112.62.15a21,21,0,0,0,21.27-18.7c1.15-10.35-5.59-19.83-16.12-22.59q-15.54-4.06-31.1-8c-6.49-1.67-13-3.28-19.83-5-1,3.87-1.76,7.5-2.76,11.07-1.76,6.25-7.6,9.9-13.41,8.5-6.3-1.52-9.82-7.51-8.29-14.16,1-4.34,2-8.66,2.91-12.34l-34-19.77a1,1,0,0,0-.34.27q-4.5,5.27-9,10.54c-4.91,5.72-11.72,6.61-16.79,2.19s-5.11-11.06-.37-16.71c3.21-3.81,6.45-7.6,9.37-11L196.54,99.1c-3.72,1.61-7.92,3.46-12.14,5.25-6.7,2.83-13.18.62-15.79-5.34s.18-12.23,6.81-15.23c3.59-1.63,7.19-3.22,11-4.92-8.43-18-13.84-36.42-13.11-56.2H56.82C54.61,44.74,41.23,62.05,31.93,81.26Zm20,166.38c3.31,7.56,6.5,14.59,9.44,21.71,1,2.39,1.9,3,4.65,2.36,29.81-7.15,58.7,9.67,67.56,39.16.26.83.59,1.64,1,2.86,4.93-19.17,6.58-23,13.36-30a44.46,44.46,0,0,1,29.13-13.65A43.32,43.32,0,0,1,204.48,277c13.11,8.43,19.92,20.78,21.55,36.22,10.41-39.55,57.11-56.74,90.47-31.16l15.1-34.46Zm195.67,78.67a33.75,33.75,0,1,0,33.74-33.79A33.73,33.73,0,0,0,247.56,326.31Zm-134.39-.07A33.74,33.74,0,1,0,79.4,360,33.7,33.7,0,0,0,113.17,326.24Zm-88.28-223c-.36,2.45-.74,4.65-1,6.86-2.12,18.94,1.29,37.28,5.88,55.52.65,2.6,1.73,3.25,4.28,3.23,17.45-.12,34.9-.06,52.35-.07,1,0,2.07-.15,3.14-.23C82,135.13,54.33,109.75,24.89,103.21Zm9.89,88.21v32.69c.78.62.87.77,1,.77,22.18.05,44.36.11,66.54,0,.84,0,2.21-1.39,2.43-2.34,1.67-7.42,3.13-14.88,4.64-22.34.58-2.87,1.13-5.75,1.74-8.8Zm97.89,7.13c-1.84,9-3.59,17.58-5.34,26.12h47.18Z"/><path d="M270.84,326.24A11.17,11.17,0,0,1,281.92,315a11.24,11.24,0,1,1,0,22.48A11.2,11.2,0,0,1,270.84,326.24Z"/><path d="M90.65,326.37a11.2,11.2,0,0,1-11.2,11.13A11.24,11.24,0,1,1,79.68,315,11.19,11.19,0,0,1,90.65,326.37Z"/></g></g></svg>