<svg xmlns="http://www.w3.org/2000/svg" viewBox="0 0 457.51 41.71"><g id="Capa_2" data-name="Capa 2"><g id="Layer_1" data-name="Layer 1"><path d="M457.51,0V32.36a8.25,8.25,0,0,0-2.9-.48c-1.32,0-2.63.15-3.94.19-2.27,1-4.54-.75-6.84-.28-1.67.89-3.68-.24-5.32.1-1.16.28-1.8,2-3.06,1.08-2.27-.65-4.35,0-6.45.4-2.92,1.05-8.16-.68-10.05,1.2.08-.55-.19.32-.79,1.76-.36,1.08-.72,1.68-1.07,1.05-.57-.8-.75.37-1.4,1.34-1.48,2.68-3.94,2.2-5.71,1.62-1,.86-2.05-.51-3-.06-1.25-.45-2.2.17-3.58.58-2.32,0-4.65.88-7,0-2.32-.32-4.65,1-7,0-1.7-.13-3.41.38-5.11,0-3.28,2.07-6.38-.07-9-1.68-1.25-1.8-1.78-2-3.43-1.75-.52-1.47-1.13.92-1.65.09-.59,1.4-1.15-1.06-1.67-.93-.8.24-1.62-3.12-2.47-.37-1.36-1.79-2.34-.34-3.69-1.51-1.71-.09-3.55,2.4-5.22-.19-1.67-.68-2.93-3.09-4.61-2.52-.94-.86-1.95.79-2.89-.6-.95-.51-1.81-1.95-2.7-1.21-.94-.23-2,.18-2.91-.1-1.23-.47-2.46-1.24-3.69,0-1.66-2-2.91-.73-4.2.69-1.08.67-.43,1.24-1.8,1-.87-.44-1.86,1.06-2.74,0-1.73,0-3.54-1.87-5.26,0-1.37-2.52-1.38,1-2.52-1-.69-2-1.19-.43-2.1-.74-1.28.22-2.14,1.15-3.59.62-1.46,1.43-3.26-.63-4.66-.1-.81-1.28-1.48-.06-2.27-1.34-1.2-.51-1.35.31-2.39-1.22-1.75-1.24-3.08-2.82-5.39-1.78a6,6,0,0,1-4.26,1.1c-1.62.06-3.3,2.12-4.93-.06a7.86,7.86,0,0,0-3.52-.61c-.94-2.09-2.49-2.13-3.25.54-.76,1.61-.71,1.62-1.45,2.28-.73-1.39-2.61,1.66-3.49.05-2.17.8-4.4-.48-6.62.1-2.21,2.33-4.42,0-6.55-.54-1.56.33-3.31-.51-4.74.39-1-1-2.13,3.09-3.19,2.15-1,1.37-1,.85-1.75-.59a3.54,3.54,0,0,0-3.46-1.11,8.28,8.28,0,0,1-4.55.64,13.1,13.1,0,0,0-3.88-2.73c-1.61-2.26-3.08-.63-4.88-1.19-1.33.06-2.72-1.65-4.16-.42-.07.2-1.08,2.14-1.22,1.16-.64,1.11-1.13.37-1.85,1.59-2.32-.88-4.86-.23-7.41,1.07-2.56-.25-5.12-1.91-7.48-1.11-1.76.1-3.54.7-5.3,0-1.84,1.51-4,2.07-5.78.09a8.21,8.21,0,0,1-2.84,1.07c-1.3-.63-1.24-1.08-2.43.54-2.35.21-4.85,1.05-7.32.57-2,1.5-4.23.72-6.4.16-2.18-1.79-4.28-.35-5.92-1.71-.94.37-1.64-1.91-2.7-1.27-1.14-.77-1.64,1.56-2.71-1.61-1.8-1.56-3.41-2.13-5.56-1.25-1.48,1.22-3,2.11-4.45,0-1.65-.66-4.83-.42-5.73.63-.52,1-.11,1.63-1.05,2.57a1.63,1.63,0,0,1-2.61.18c-1.36.42-2.49-1.46-3.83.6-2.42,1.3-4.92-.51-7.3-.65-1.41.84-1.35.06-2.62,1.55-.84.29-1.53-.13-2.4.21-3.47-1.81-7-.77-10.41,0-1.73.31-3.87-1.72-5.31.52A3.47,3.47,0,0,1,126,32.93c-1.47.82-1.8-.88-3-2.11-1-1.54-1.92-.17-2.91.55-1.18,1.85-2.71.77-3.82.83-.44,2.07-1,1.15-1.29,1.19-.62,0-1.2-1-1.83.08-1.31-.86-1.86,1.17-3.24,1.17-1.1,1.41-2.47.08-3.53.07-.87,2.16-1.32,2.27-2.07,1.5-2.37,1.5-6.31.89-9,.68-1.38.63-2.85-1.43-4.22.06-1.6-.94-2.78-2-4.32-1.25-1.49-1.23-3.15,2.73-4.61,0C80.23,36,79.08,33,77,32.39a61.72,61.72,0,0,0-7.74-1.78c-1.22-.59-2.16-2.17-3.38-.52-2.66-1.77-4.94-.63-7.53-.13-2.84.72-5.27-.28-7.76-2.49-2.13-.47-4.44-.27-6.77-.87-2.34,1.5-4.69,0-6.92-.27-2.44-1.18-5.78-3.11-7.92-1.26s-3.71,2.11-6.33,2.16c-1.79-2-2.9,1.79-4.53,2.46-1.5,1.44-3.05.89-4.6.07-1.46,1.23-2.47-.53-4-.84-1-1-3.29.39-4.3,0C3.39,29.1,1.7,31.26,0,32.36V0Z" style="fill:#fff"/></g></g></svg>