<svg xmlns="http://www.w3.org/2000/svg" viewBox="0 0 457.51 27.12"><g id="Capa_2" data-name="Capa 2"><g id="Layer_1" data-name="Layer 1"><path d="M453,8.7c-.24,2.41-6.07,1.73-7.44,1.7-3.47-.7-7.37.67-10.73-.42-2.49-.86-4.69-2-7.28-1.85-2.17,2-4.52-.4-6.6.33-1.44.39-2.81,2.12-4.28,1.39a2.91,2.91,0,0,0-1.09.31c-.29-.08-.43-.28-.8.78-1-.92-3.27.06-4.27,0a4.17,4.17,0,0,1-3.78-.87c-1.24-.75-1.79-2.25-3.35-.86-1-1-5-.91-6,.22-.57,1.57-.24,1-.5,1.54s-1,1.4-1.73,1.33a8.15,8.15,0,0,1-7.65.32c-3,1.05-6.57,1.84-9.48.17-1,.05-1.05-.56-2.1-2.22-.79-1.89-1.74.13-2.58-.21a26.88,26.88,0,0,1-5.28-.23c-1.27-1.17-1.34-.86-2.88-1.48-3.26-.59-6.58.19-9.68-.43-2-.58-4.51.47-6.62-.13C346.19,4.76,342.29,10,340.27,7c-.72-1-1.14-2.59-2.18-1.63-.61.23-1.21-.65-1.81-.94-2.3-.25-3.59,2-5.78.9-1.05,2-2.12.5-3.17,0-1.4-.45-3.28-.13-4.63-.1-1-1.11-1.63-.51-2.8-1.49-.91-.57-1.84.49-2.77-.12-2.64-.19-5.37,2.14-8.06.6a13.42,13.42,0,0,0-6.83-1.66c.32,2.92-8.15-.47-9.94,1.64-2.75,1.44-5.43-1.29-8.13-1.28-2.3-2.67-4.52.6-6.9-.43a4.34,4.34,0,0,0-4.34.57c-.86.83-.39.65-1.36.58-.27,2.64-.78.32-1.09,0-1.46,1.28-3.17-.66-4.6.05-1.05-.83-1.87-.23-2.76-1.47-1.62.46-3.28-1.08-5.19-1.41-2.69.06-5.36.73-7.9-.45-2.11-1-4.45.89-6.52,1-1.13,1.09-1.39.47-2.34.81-.53-.17-1,1.51-1.55.36a4.67,4.67,0,0,0-4.33,0c-1.38,1.71-2.85-.77-4.22-.06-1.58-3-2.88,1-4.42,1.22-2.82-.63-5.87-1.08-8.71,0-1.15-.34-2.54.13-3.65.12S213,4.93,212,5.64c-1.9,1.73-5.26-1.29-7.39.19-1.08-.73-1.69,1.51-2.86.59-2,.7-1.82.28-3.32,1.47-1.67,1.92-5,.4-6.69-.19-1.35-1.81-2-.85-2.58-1.4-.63-.24-.68-1.33-1.86-2.47-1-.21-1.81-2.52-3.14-2-1.52-1.08-2.51.56-3.65.54-1.82,2.06-4.59.32-6.51,0-2.65-.57-5.31.36-8,0-1.87,1.22-3.75.08-5.63,0-1.05.15-3-.54-2.94,1-1.92.84-4.15.39-6.11.18-.16,1.19.17,2.34-.08,2.65-1.83-.9-3.58,2-5.48,1.26-1.34.29-2.7-1.53-4,0-3.06.48-6.12-.9-9.19,0a16.73,16.73,0,0,0-3,.62c-1.58.65-2.57,2.38-4.42,1.08-1.69.41-3.36-.58-5-.28-2,0-1.33.84-2.74.89-1,1.37-3-.68-4.11,0-1.86-2-3.75,1.2-5.61,0-1.6-.61-1.71-.49-2.92-1.68-1.22.82-3-.6-4.42-1.16-1.61-1.11-2.9.38-4.51-.69-1.08.34-1.5-1.5-2.56-.08-.77-.11-1.06.44-1.72,1.53-.7,2.22-1,1.06-1.86.38-1.06.51-2.13-.56-3.19,0-1.2-1.16-2.4,1.61-3.6,0-1.15.84-3-.09-4-.06-1-.52-1.63-.2-2.68,1.35-1.23.66-1.79,1.87-3.11,0a48,48,0,0,0-7.36-3c-2.11.68-4.22-.95-6.33,0-1.83.51-3.24-2-5-.58-1.46-.17-2.94.34-4.41,0-1.41.25-2.82,1.25-4.22,0-.94,0-2.46.62-3.27-.54-2.24-2.29-3.67-2.53-6.2-2.88-1.26-.13-2.54-1.26-3.78-.13-1,1.11-2-.45-3-1C27.08.45,24.15,1,22.69,3,20.83,5.53,18.3,5.4,15.29,5.3c-1.43-1-2.58.61-3.95.58-.33-1.07-.88-.53-1.16-.06-.56.09-.46.2-.88.82-2.22,1.66-4.51,2-6.47-.78,0,.06-.7,3.68-1.41,6C.71,14.62,0,17.51,0,17.77c1.7-1.1,3.39-3.26,5.19-3.47,1,.42,3.29-1,4.29,0,1.59.32,2.6,2.08,4.06.85,1.54.82,3.1,1.37,4.6-.07,1.63-.67,2.74-4.43,4.52-2.46,2.63-.05,4.25-.34,6.33-2.16s5.49.08,7.93,1.26c2.22.29,4.58,1.76,6.91.27,2.34.6,4.65.4,6.78.87,2.49,2.21,4.92,3.21,7.75,2.49,2.59-.5,4.87-1.64,7.53.13,1.23-1.65,2.16-.07,3.39.52A62.13,62.13,0,0,1,77,17.8c2.06.63,3.21,3.55,5.17,3.28,1.46,2.76,3.12-1.2,4.61,0,1.54-.79,2.71.31,4.32,1.25,1.36-1.49,2.84.57,4.21-.06,2.68.2,6.62.82,9-.68.76.77,1.21.66,2.07-1.5,1.07,0,2.43,1.34,3.53-.07,1.39,0,1.94-2,3.25-1.17.62-1,1.21-.09,1.83-.08.29,0,.85.88,1.29-1.19,1.1-.06,2.63,1,3.81-.83,1-.72,1.89-2.09,2.92-.55,1.22,1.23,1.54,2.93,3,2.1a3.4,3.4,0,0,0,2.12-1.74c1.45-2.24,3.58-.21,5.32-.52,3.46-.79,6.94-1.82,10.4,0,.88-.34,1.57.08,2.41-.22,1.27-1.48,1.2-.7,2.62-1.54,2.38.14,4.87,1.95,7.3.64,1.33-2,2.46-.17,3.83-.59a1.62,1.62,0,0,0,2.6-.18c.95-.94.53-1.6,1.06-2.57.9-1,4.08-1.29,5.73-.64,1.48,2.11,3,1.21,4.44,0,2.16-.88,3.76-.31,5.57,1.25,1.07,3.17,1.56.84,2.71,1.6,1.06-.63,1.75,1.64,2.7,1.28,1.64,1.36,3.74-.08,5.91,1.71,2.18.56,4.44,1.34,6.41-.17,2.46.49,5-.36,7.32-.56,1.19-1.62,1.13-1.17,2.43-.54a8.21,8.21,0,0,0,2.84-1.07c1.73,2,3.94,1.42,5.77-.09,1.76.67,3.55.07,5.3,0,2.37-.8,4.93.86,7.49,1.11,2.55-1.31,5.09-1.95,7.41-1.07.72-1.22,1.2-.48,1.84-1.59.14,1,1.15-1,1.23-1.16,1.44-1.24,2.82.47,4.16.42,1.8.56,3.26-1.08,4.88,1.19A13.23,13.23,0,0,1,251.7,16a8.28,8.28,0,0,0,4.55-.64,3.54,3.54,0,0,1,3.46,1.11c.72,1.44.72,2,1.74.59,1.06.94,2.15-3.17,3.19-2.15,1.44-.9,3.18-.06,4.75-.39,2.13.54,4.33,2.87,6.55.54,2.22-.58,4.45.7,6.62-.1.88,1.61,2.76-1.44,3.49,0,.73-.66.69-.67,1.45-2.29.76-2.66,2.31-2.62,3.25-.53a7.86,7.86,0,0,1,3.52.61c1.63,2.18,3.3.12,4.93.05a5.83,5.83,0,0,0,4.25-1.1c2.32-1,3.65.54,5.4,1.79,1,1.52,1.19.7,2.39,1.22.79,1.28,1.46.06,2.27,1.34,1.39-.53,3.2,1.53,4.66.1,1.44.52,2.31-.4,3.59-.62.91.31,1.4-1.24,2.1.74,1.14,2,1.15-1.48,2.52,1,1.72-1.9,3.53,0,5.26,0,.87,1.08,1.87-.41,2.73,0,1.38.2.73-.37,1.8-1,1.29-1.43,2.54-2.73,4.21-.69,1.23-1.24,2.46-.47,3.69,0,1,.28,2-.13,2.91.1.88-.74,1.74.7,2.7,1.21.94,1.39,1.95-.26,2.89.6,1.68-.57,2.93,1.83,4.6,2.52,1.67,2.59,3.52.1,5.23.19,1.35,1.17,2.33-.28,3.69,1.51.85-2.75,1.67.61,2.47.37.52-.13,1.08,2.33,1.67.93.51.83,1.12-1.56,1.65-.09,1.65-.21,2.18-.05,3.43,1.75,2.65,1.61,5.75,3.75,9,1.68,1.71.38,3.41-.13,5.12,0,2.33,1,4.65-.33,7,0,2.33.88,4.65,0,7,0,1.38-.41,2.33-1,3.57-.58.95-.45,2,.92,3,.06,1.76.58,4.22,1.06,5.71-1.62.65-1,.82-2.14,1.39-1.34.36.62.72,0,1.08-1.06.6-1.43.86-2.3.79-1.75,1.89-1.88,7.13-.15,10-1.2,2.11-.36,4.19-1.05,6.45-.4,1.27.87,1.91-.8,3.07-1.08,1.63-.34,3.64.79,5.31-.1,2.31-.47,4.57,1.25,6.84.28,2.27-.08,4.54-.56,6.85.29C457.51,17.28,453,9.1,453,8.7Z" style="fill:#fff"/></g></g></svg>